<svg id="visual" viewBox="0 0 960 540" width="960" height="540" xmlns="http://www.w3.org/2000/svg" xmlns:xlink="http://www.w3.org/1999/xlink" version="1.1"><path d="M0 22L10.7 23.8C21.3 25.7 42.7 29.3 64 28.2C85.3 27 106.7 21 128 16.7C149.3 12.3 170.7 9.7 192 13.2C213.3 16.7 234.7 26.3 256 29.5C277.3 32.7 298.7 29.3 320 26.5C341.3 23.7 362.7 21.3 384 20.5C405.3 19.7 426.7 20.3 448 24.7C469.3 29 490.7 37 512 39.2C533.3 41.3 554.7 37.7 576 37C597.3 36.3 618.7 38.7 640 35.7C661.3 32.7 682.7 24.3 704 18.2C725.3 12 746.7 8 768 10.7C789.3 13.3 810.7 22.7 832 22.8C853.3 23 874.7 14 896 14.5C917.3 15 938.7 25 949.3 30L960 35L960 0L949.3 0C938.7 0 917.3 0 896 0C874.7 0 853.3 0 832 0C810.7 0 789.3 0 768 0C746.7 0 725.3 0 704 0C682.7 0 661.3 0 640 0C618.7 0 597.3 0 576 0C554.7 0 533.3 0 512 0C490.7 0 469.3 0 448 0C426.7 0 405.3 0 384 0C362.7 0 341.3 0 320 0C298.7 0 277.3 0 256 0C234.7 0 213.3 0 192 0C170.7 0 149.3 0 128 0C106.7 0 85.3 0 64 0C42.7 0 21.3 0 10.7 0L0 0Z" fill="#F8F9FA" stroke-linecap="round" stroke-linejoin="miter"></path></svg>