<svg id="visual" viewBox="0 0 960 540" width="960" height="540" xmlns="http://www.w3.org/2000/svg" xmlns:xlink="http://www.w3.org/1999/xlink" version="1.1"><path d="M0 493L20 495.5C40 498 80 503 120 509.3C160 515.7 200 523.3 240 527C280 530.7 320 530.3 360 529.2C400 528 440 526 480 519.3C520 512.7 560 501.3 600 502.2C640 503 680 516 720 523.2C760 530.3 800 531.7 840 527.7C880 523.7 920 514.3 940 509.7L960 505L960 541L940 541C920 541 880 541 840 541C800 541 760 541 720 541C680 541 640 541 600 541C560 541 520 541 480 541C440 541 400 541 360 541C320 541 280 541 240 541C200 541 160 541 120 541C80 541 40 541 20 541L0 541Z" fill="#ffffff" stroke-linecap="round" stroke-linejoin="miter"></path></svg>